<svg preserveAspectRatio="xMidYMid meet" data-bbox="65.157 50.012 69.686 99.977" viewBox="65.157 50.012 69.686 99.977" height="200" width="200" xmlns="http://www.w3.org/2000/svg" data-type="shape" role="img" aria-label="Homepage">
    <g>
        <path d="M132.773 60.014c-1.19-.001-2.096.891-2.131 2.039l-.007.261c-.034 1.172-.069 2.383-.218 3.593-.511 4.161-2.529 9.401-13.613 16.709l-.001.001c-4.096 2.703-9.267 5.572-15.37 8.525-18.966 9.176-26.762 14.401-27.473 29.365-.319 6.709 2.559 13.767 7.896 19.365 6.13 6.43 14.455 10.117 22.839 10.117 16.752 0 29.012-12.365 29.816-30.075.004-.098.346-11.503.331-11.849v-45.95a2.1 2.1 0 00-2.069-2.101zm-2.131 48.075c0 .521-.302 10.997-.327 11.64-.708 15.586-11.004 26.058-25.62 26.058-7.135 0-14.536-3.295-19.799-8.815-4.549-4.77-7.006-10.699-6.741-16.266.581-12.221 5.873-16.478 25.107-25.785 6.27-3.033 11.603-5.994 15.853-8.8 5.669-3.738 9.248-7.084 11.525-10.102v32.07zm-52.401-15.51s.001 0 0 0c2.372-1.732 5.382-3.594 8.949-5.532 11.503-6.256 16.188-9.748 16.188-19.255.001-4.288-2.034-8.688-5.582-12.074-4.05-3.864-9.408-5.941-14.699-5.685-10.587.501-17.963 8.663-17.94 19.843 0 .056.118 6.973.14 7.214l1.317 27.759c.053 1.122.976 1.942 2.09 1.942.025 0 .052 0 .077-.002 1.128-.038 2.019-1.016 2.028-2.139v-.061c-.014-.688-.031-1.395.025-2.136.177-2.338 1.194-5.341 7.407-9.874zm-7.936 1.437l-.813-17.135c-.017-.429-.132-6.711-.135-7.009-.019-8.961 5.582-15.247 13.938-15.643.212-.01.424-.015.637-.015 3.897 0 7.952 1.671 10.963 4.544 2.721 2.596 4.282 5.887 4.281 9.033 0 7.019-2.813 9.485-13.994 15.565-3.729 2.027-6.897 3.988-9.418 5.829-2.39 1.745-4.155 3.349-5.459 4.831z"></path>
    </g>
</svg>
